<?xml version="1.0" encoding="UTF-8"?>
<!DOCTYPE svg PUBLIC "-//W3C//DTD SVG 1.1//EN" "http://www.w3.org/Graphics/SVG/1.1/DTD/svg11.dtd">
<!-- Creator: CorelDRAW X8 -->
<svg xmlns="http://www.w3.org/2000/svg" xml:space="preserve" width="53.9925mm" height="20.4777mm" version="1.1" style="shape-rendering:geometricPrecision; text-rendering:geometricPrecision; image-rendering:optimizeQuality; fill-rule:evenodd; clip-rule:evenodd"
viewBox="0 0 1826 692"
 xmlns:xlink="http://www.w3.org/1999/xlink">
 <defs>
  <style type="text/css">
   <![CDATA[
    .fil0 {fill:#0053BA}
    .fil1 {fill:#999999}
    .fil2 {fill:#E6E6E6;fill-rule:nonzero}
   ]]>
  </style>
 </defs>
 <g id="Capa_x0020_1">
  <metadata id="CorelCorpID_0Corel-Layer"/>
  <g id="_2015081997552">
   <path class="fil0" d="M82 371c-51,74 -88,283 145,264 60,-4 216,-24 305,-51 251,-76 403,-177 529,-122 40,17 72,64 83,96l6 16c-27,-37 -36,-97 -136,-101 -110,-5 -233,77 -365,126 -160,60 -316,91 -439,93 -68,1 -161,-25 -193,-83 -34,-64 -16,-162 46,-221l19 -17z"/>
   <path class="fil1" d="M239 87c26,90 94,76 188,66 147,-16 214,-53 232,-153 -186,105 -393,116 -420,87z"/>
   <path class="fil1" d="M229 320c326,-264 477,219 134,278 218,-106 129,-407 -98,-238l-36 -40z"/>
   <path class="fil0" d="M367 159l-37 100c-28,11 -57,28 -88,51l54 -156c20,7 44,7 71,5z"/>
   <path class="fil1" d="M363 598c314,-32 618,-298 758,-112 -19,-80 -124,-125 -276,-78 -106,32 -221,98 -391,160 -26,13 -56,24 -91,30z"/>
   <path class="fil0" d="M208 432c-31,134 173,136 270,43 -3,10 -7,20 -13,29 -128,214 -389,31 -257,-72z"/>
   <path class="fil1" d="M569 144c88,158 191,-99 273,-129 -140,-67 -173,201 -273,129z"/>
   <path class="fil0" d="M818 39c-62,144 -98,283 -131,432 -30,13 -61,27 -95,41 25,-133 55,-236 82,-327 27,-1 122,-136 144,-146z"/>
   <path class="fil2" d="M693 651l6 0c7,0 13,-2 16,-4 4,-3 5,-7 5,-13 0,-4 -1,-6 -3,-8 -3,-1 -7,-2 -12,-2l-6 0 -6 27zm1080 -27c-2,0 -4,0 -6,2 -2,2 -4,5 -5,8 -1,3 -2,6 -3,9 -1,3 -2,6 -2,10 -1,3 -2,7 -2,11 -1,3 -1,6 -1,9 0,4 1,7 2,9 2,3 4,4 7,4 2,0 4,-1 6,-3 2,-2 4,-5 5,-8 1,-2 2,-5 3,-8 1,-3 2,-7 3,-11 0,-3 1,-7 1,-10 1,-4 1,-7 1,-10 0,-4 -1,-7 -2,-9 -2,-2 -4,-3 -7,-3zm-25 49c0,-3 0,-6 1,-10 0,-4 1,-8 2,-12 1,-4 2,-8 3,-11 1,-4 2,-7 3,-9 2,-4 4,-8 7,-10 3,-2 6,-3 10,-3 4,0 8,2 10,5 3,3 4,8 4,14 0,3 0,6 -1,9 0,4 -1,8 -2,12 -1,4 -2,8 -3,12 -1,3 -2,6 -3,8 -2,5 -4,8 -7,10 -3,2 -6,3 -10,3 -4,0 -8,-2 -10,-5 -3,-3 -4,-7 -4,-13zm56 16l12 -56c-1,0 -3,0 -5,0 -1,1 -3,1 -5,1l-5 0 1 -4c5,0 9,-1 12,-3 3,-2 5,-5 7,-9l5 0 -16 71 -6 0zm-1125 0l15 -71 13 0c6,0 11,2 14,5 4,2 5,6 5,12 0,5 -1,9 -4,12 -2,3 -6,5 -10,6 2,1 4,3 5,5 2,2 2,4 2,7 0,3 0,6 -1,11 -1,4 -2,7 -2,8 0,1 0,2 1,3 0,0 0,1 1,1l0 1 -7 0c-1,0 -1,-1 -1,-2 0,0 0,-1 0,-1 0,-2 0,-5 1,-10 2,-5 2,-8 2,-11 0,-3 -1,-6 -3,-7 -2,-1 -7,-2 -13,-2l-5 0 -7 33 -6 0zm88 -52l-11 52 -5 0 1 -5c-2,2 -4,4 -6,5 -2,1 -5,2 -7,2 -3,0 -6,-1 -8,-3 -2,-1 -3,-4 -3,-7 0,0 1,-1 1,-2 0,-1 0,-2 0,-3l8 -39 6 0 -8 39c0,1 -1,1 -1,2 0,1 0,2 0,2 0,2 1,4 2,5 1,1 2,1 4,1 4,0 7,-1 9,-4 3,-3 5,-6 6,-11l7 -34 5 0zm2 52l11 -52 5 0 -1 6c2,-3 4,-4 6,-5 3,-1 5,-2 8,-2 2,0 4,1 6,2 2,1 3,3 4,5 2,-2 4,-4 6,-5 3,-1 5,-2 8,-2 3,0 5,1 7,3 2,1 3,4 3,6 0,1 0,2 0,3 0,1 -1,2 -1,3l-8 38 -6 0 9 -38c0,-1 0,-2 0,-2 0,-1 0,-2 0,-2 0,-2 0,-4 -1,-5 -2,-1 -3,-1 -5,-1 -3,0 -6,1 -9,4 -2,2 -4,6 -5,11l-7 33 -6 0 9 -38c0,-1 0,-2 0,-2 0,-1 0,-2 0,-2 0,-2 0,-4 -1,-5 -2,-1 -3,-1 -5,-1 -3,0 -6,1 -9,4 -2,2 -4,6 -5,11l-7 33 -6 0zm92 -48c-2,0 -4,1 -6,2 -2,2 -3,4 -5,7 0,1 -1,3 -1,4 -1,2 -1,4 -2,8 -1,3 -2,6 -2,8 0,2 0,4 0,5 0,4 0,6 2,8 1,2 3,3 6,3 2,0 4,-1 6,-2 2,-2 3,-4 5,-7 1,-3 2,-7 3,-12 2,-5 2,-9 2,-13 0,-4 -1,-7 -2,-9 -1,-1 -3,-2 -6,-2zm-26 48l15 -71 6 0 -5 24c2,-2 3,-4 5,-5 2,-1 4,-1 6,-1 4,0 7,1 10,4 2,3 3,7 3,13 0,5 -1,10 -2,15 -2,6 -4,10 -6,14 -2,3 -4,5 -6,7 -2,1 -5,2 -8,2 -3,0 -5,-1 -7,-2 -1,-1 -3,-3 -4,-5l-1 5 -6 0zm47 -15c0,-5 0,-10 2,-15 1,-6 2,-10 4,-14 2,-3 4,-5 7,-7 2,-2 5,-2 8,-2 5,0 8,1 11,4 2,3 3,7 3,12 0,5 0,10 -1,16 -2,5 -3,9 -5,13 -2,3 -4,6 -6,7 -3,2 -6,3 -9,3 -5,0 -8,-2 -11,-5 -2,-2 -3,-7 -3,-12zm21 -34c-2,0 -4,1 -6,2 -1,2 -3,3 -4,6 -2,3 -3,7 -4,13 -1,5 -2,9 -2,14 0,3 1,6 3,8 1,2 3,3 6,3 2,0 4,-1 6,-2 2,-1 3,-3 4,-5 2,-4 3,-8 4,-13 1,-6 2,-10 2,-14 0,-4 -1,-7 -3,-9 -1,-2 -3,-3 -6,-3zm54 10l-6 0c1,-5 3,-8 6,-11 3,-2 6,-3 10,-3 4,0 7,1 9,3 2,1 3,4 3,6 0,1 0,3 0,4 0,1 0,3 -1,5l-5 26c0,0 0,0 0,1 0,0 0,1 0,1 0,1 0,2 0,3 1,0 2,1 3,1 0,0 1,0 1,0 0,0 0,0 0,-1l-1 5c0,0 -1,0 -2,0 0,0 -1,0 -1,0 -2,0 -3,0 -4,-1 -1,-1 -2,-2 -2,-3 -2,1 -3,3 -5,3 -2,1 -4,2 -6,2 -3,0 -6,-2 -8,-4 -3,-2 -4,-5 -4,-9 0,-4 2,-8 4,-11 2,-2 7,-5 14,-7 5,-2 8,-3 10,-5 1,-2 2,-4 2,-7 0,-3 -1,-4 -2,-6 -1,-1 -3,-1 -5,-1 -3,0 -5,0 -6,2 -2,1 -3,3 -4,7zm14 12l-1 0c-13,5 -20,10 -20,16 0,2 1,4 2,5 1,2 3,3 5,3 4,0 7,-2 9,-6 2,-3 4,-9 5,-18zm34 27l15 -71 6 0 -15 71 -6 0zm31 -39l-5 0c1,-5 2,-8 5,-11 3,-2 6,-3 11,-3 3,0 6,1 8,3 2,1 4,4 4,6 0,1 0,3 -1,4 0,1 0,3 -1,5l-5 26c0,0 0,0 0,1 0,0 0,1 0,1 0,1 0,2 1,3 0,0 1,1 2,1 1,0 1,0 1,0 0,0 0,0 1,-1l-1 5c-1,0 -2,0 -2,0 -1,0 -1,0 -2,0 -2,0 -3,0 -4,-1 -1,-1 -1,-2 -2,-3 -1,1 -3,3 -5,3 -2,1 -4,2 -6,2 -3,0 -6,-2 -8,-4 -2,-2 -3,-5 -3,-9 0,-4 1,-8 3,-11 2,-2 7,-5 15,-7 5,-2 8,-3 9,-5 1,-2 2,-4 2,-7 0,-3 -1,-4 -2,-6 -1,-1 -3,-1 -5,-1 -3,0 -5,0 -6,2 -2,1 -3,3 -4,7zm14 12l0 0c-14,5 -21,10 -21,16 0,2 1,4 2,5 2,2 3,3 6,3 3,0 6,-2 8,-6 2,-3 4,-9 5,-18zm70 -10l-4 0 0 0c0,-4 -1,-7 -3,-9 -1,-2 -3,-3 -6,-3 -2,0 -4,1 -5,2 -2,2 -3,3 -4,6 -1,3 -3,8 -4,13 -1,5 -1,10 -1,14 0,3 0,6 2,8 1,2 3,3 6,3 3,0 5,-1 7,-3 2,-3 3,-6 4,-10l5 0c-1,6 -3,10 -6,13 -3,3 -6,5 -10,5 -4,0 -8,-2 -10,-4 -2,-3 -4,-7 -4,-13 0,-4 1,-10 2,-15 1,-6 3,-10 5,-14 1,-3 3,-5 5,-7 3,-2 5,-2 8,-2 5,0 8,1 10,4 2,2 3,6 3,11l0 1zm14 6l20 0c0,-2 1,-3 1,-4 0,-1 0,-2 0,-3 0,-3 -1,-6 -2,-8 -2,-2 -4,-3 -7,-3 -2,0 -5,2 -7,5 -2,2 -3,7 -5,13zm25 5l-26 0c0,3 -1,6 -1,8 0,1 0,3 0,4 0,3 1,6 2,8 2,2 4,3 6,3 3,0 5,-1 7,-3 2,-2 3,-6 4,-10l6 0c-2,6 -4,10 -7,13 -2,3 -6,5 -10,5 -4,0 -8,-2 -10,-5 -2,-2 -3,-7 -3,-12 0,-5 0,-10 2,-15 1,-6 2,-10 4,-14 1,-3 3,-5 6,-7 2,-2 5,-2 8,-2 4,0 7,1 10,4 2,3 3,7 3,12 0,1 0,2 0,4 0,2 -1,4 -1,7zm5 26l11 -52 6 0 -1 5c1,-2 3,-4 5,-5 3,-1 5,-1 7,-1l2 0 -2 6c-4,0 -8,1 -10,3 -2,2 -4,6 -5,13l-7 31 -6 0zm37 -48l-4 0 1 -4 4 0 4 -15 5 0 -3 15 7 0 -1 4 -7 0 -7 32c-1,3 -1,5 -1,6 0,1 -1,2 -1,3 0,1 1,2 1,3 1,0 2,1 4,1 0,0 1,0 1,0 0,0 1,0 1,-1l-1 5c-1,0 -1,0 -2,0 -1,0 -1,0 -2,0 -2,0 -4,-1 -5,-2 -2,-1 -2,-3 -2,-5 0,-1 0,-2 0,-3 0,-2 1,-4 1,-6l7 -33zm23 -14l2 -9 7 0 -2 9 -7 0zm-12 62l11 -52 6 0 -11 52 -6 0zm19 0l11 -48 -6 0 1 -4 5 0 2 -8c1,-4 2,-7 4,-9 2,-1 4,-2 7,-2 1,0 2,0 3,0 0,0 0,0 1,0l-1 5c-1,0 -1,0 -1,0 -1,0 -1,0 -1,0 -2,0 -3,0 -4,1 -1,1 -2,3 -2,5l-2 8 6 0 0 4 -7 0 -10 48 -6 0zm32 -62l2 -9 7 0 -2 9 -7 0zm-12 62l11 -52 6 0 -11 52 -6 0zm54 -37l-5 0 0 0c0,-4 0,-7 -2,-9 -1,-2 -4,-3 -6,-3 -2,0 -4,1 -5,2 -2,2 -3,3 -4,6 -2,3 -3,8 -4,13 -1,5 -2,10 -2,14 0,3 1,6 3,8 1,2 3,3 6,3 2,0 5,-1 7,-3 1,-3 3,-6 4,-10l5 0c-1,6 -3,10 -6,13 -3,3 -6,5 -10,5 -5,0 -8,-2 -10,-4 -3,-3 -4,-7 -4,-13 0,-4 1,-10 2,-15 1,-6 3,-10 4,-14 2,-3 4,-5 6,-7 2,-2 5,-2 8,-2 4,0 8,1 10,4 2,2 3,6 3,11l0 1zm16 -2l-5 0c1,-5 3,-8 5,-11 3,-2 7,-3 11,-3 3,0 6,1 8,3 3,1 4,4 4,6 0,1 0,3 -1,4 0,1 0,3 0,5l-6 26c0,0 0,0 0,1 0,0 0,1 0,1 0,1 0,2 1,3 0,0 1,1 2,1 1,0 1,0 1,0 0,0 1,0 1,-1l-1 5c-1,0 -2,0 -2,0 -1,0 -1,0 -2,0 -1,0 -3,0 -4,-1 -1,-1 -1,-2 -2,-3 -1,1 -3,3 -5,3 -2,1 -3,2 -6,2 -3,0 -6,-2 -8,-4 -2,-2 -3,-5 -3,-9 0,-4 1,-8 3,-11 3,-2 7,-5 15,-7 5,-2 8,-3 9,-5 1,-2 2,-4 2,-7 0,-3 -1,-4 -2,-6 -1,-1 -3,-1 -5,-1 -3,0 -5,0 -6,2 -1,1 -3,3 -4,7zm14 12l0 0c-14,5 -21,10 -21,16 0,2 1,4 2,5 2,2 4,3 6,3 3,0 6,-2 8,-6 2,-3 4,-9 5,-18zm48 -10l-5 0 0 0c0,-4 0,-7 -2,-9 -1,-2 -3,-3 -6,-3 -2,0 -4,1 -5,2 -2,2 -3,3 -4,6 -2,3 -3,8 -4,13 -1,5 -1,10 -1,14 0,3 0,6 2,8 1,2 3,3 6,3 3,0 5,-1 7,-3 2,-3 3,-6 4,-10l5 0c-1,6 -3,10 -6,13 -3,3 -6,5 -10,5 -5,0 -8,-2 -10,-4 -3,-3 -4,-7 -4,-13 0,-4 1,-10 2,-15 1,-6 3,-10 4,-14 2,-3 4,-5 6,-7 3,-2 5,-2 8,-2 4,0 8,1 10,4 2,2 3,6 3,11l0 1zm16 -25l1 -9 7 0 -2 9 -6 0zm-12 62l11 -52 5 0 -11 52 -5 0zm20 -15c0,-5 1,-10 2,-15 2,-6 3,-10 5,-14 2,-3 4,-5 6,-7 3,-2 6,-2 9,-2 4,0 8,1 10,4 3,3 4,7 4,12 0,5 0,10 -2,16 -1,5 -3,9 -4,13 -2,3 -4,6 -7,7 -2,2 -5,3 -8,3 -5,0 -9,-2 -11,-5 -2,-2 -4,-7 -4,-12zm21 -34c-2,0 -4,1 -5,2 -2,2 -3,3 -4,6 -2,3 -3,7 -4,13 -1,5 -2,9 -2,14 0,3 1,6 2,8 2,2 4,3 7,3 2,0 4,-1 6,-2 1,-1 3,-3 4,-5 1,-4 3,-8 4,-13 1,-6 1,-10 1,-14 0,-4 0,-7 -2,-9 -1,-2 -4,-3 -7,-3zm2 -9l-4 0 9 -12 7 0 -12 12zm17 58l11 -52 6 0 -1 6c2,-3 4,-4 6,-5 2,-1 4,-2 7,-2 3,0 5,1 7,3 2,1 3,4 3,6 0,1 0,2 0,3 0,1 0,2 0,3l-9 38 -5 0 8 -38c0,-1 0,-2 0,-2 0,-1 0,-2 0,-2 0,-2 0,-4 -1,-5 -1,-1 -3,-1 -5,-1 -3,0 -6,1 -9,4 -2,2 -4,6 -5,11l-7 33 -6 0zm66 0l15 -71 6 0 -15 71 -6 0zm22 -21l6 0c0,1 0,1 0,2 0,1 0,1 0,2 0,4 1,7 3,10 2,2 6,3 9,3 5,0 8,-1 11,-4 3,-3 4,-7 4,-12 0,-5 -3,-10 -10,-13 -2,-1 -3,-1 -4,-2 -4,-2 -7,-4 -8,-7 -2,-3 -3,-6 -3,-10 0,-5 2,-10 6,-14 3,-4 8,-6 13,-6 6,0 10,1 13,4 3,3 5,7 5,13 0,0 0,1 0,1 0,0 0,0 0,1l-6 0c0,0 0,-1 0,-1 0,0 0,-1 0,-1 0,-4 -1,-6 -3,-9 -2,-2 -5,-3 -8,-3 -4,0 -7,2 -10,5 -2,3 -4,6 -4,11 0,4 4,9 12,12 1,1 2,1 2,2 4,2 7,4 9,7 1,2 2,5 2,9 0,7 -2,12 -5,17 -4,4 -9,6 -16,6 -5,0 -10,-2 -13,-5 -4,-3 -5,-7 -5,-13 0,0 0,-1 0,-2 0,-1 0,-2 0,-3zm78 -46c-3,0 -6,1 -8,3 -2,2 -4,4 -6,8 -1,2 -2,5 -3,8 -1,3 -2,7 -3,11 -1,4 -1,7 -2,10 0,4 0,6 0,9 0,5 1,8 3,11 2,2 4,3 8,3 3,0 6,0 8,-2 3,-2 5,-5 7,-8 1,-3 2,-5 3,-9 1,-3 1,-7 2,-11 1,-3 2,-7 2,-10 1,-3 1,-6 1,-9 0,-4 -1,-8 -3,-10 -2,-3 -5,-4 -9,-4zm-29 49c0,-3 1,-6 1,-9 1,-4 1,-7 2,-11 1,-4 2,-8 3,-11 1,-4 2,-7 4,-9 2,-5 5,-9 8,-11 3,-2 7,-3 11,-3 6,0 11,1 13,5 3,3 5,9 5,15 0,3 0,6 -1,9 0,3 -1,7 -2,11 -1,4 -2,8 -3,11 -1,4 -2,6 -3,9 -2,5 -5,8 -8,10 -4,3 -7,4 -12,4 -6,0 -10,-2 -13,-5 -3,-4 -5,-9 -5,-15zm108 -35c0,-4 -1,-7 -3,-9 -1,-2 -4,-4 -6,-4 -4,0 -8,3 -10,7 -3,5 -4,10 -4,16 0,4 0,7 2,10 2,2 4,3 7,3 4,0 7,-2 10,-7 3,-4 4,-10 4,-16zm-34 39l5 0c0,4 1,6 3,8 1,2 3,3 5,3 5,0 8,-3 11,-7 3,-5 6,-12 8,-22 -2,3 -4,4 -6,5 -3,2 -5,2 -7,2 -5,0 -8,-1 -11,-4 -2,-3 -4,-8 -4,-13 0,-8 2,-15 6,-21 4,-5 9,-8 15,-8 4,0 8,2 11,6 3,3 4,8 4,14 0,6 -1,11 -2,18 -1,7 -3,13 -5,18 -2,5 -5,9 -8,12 -4,3 -8,5 -12,5 -4,0 -7,-2 -9,-5 -3,-2 -4,-6 -4,-11zm71 -51c-3,0 -5,0 -7,2 -2,2 -3,5 -5,8 -1,3 -2,6 -3,9 0,3 -1,6 -2,10 -1,3 -1,7 -2,11 0,3 -1,6 -1,9 0,4 1,7 3,9 1,3 3,4 6,4 3,0 5,-1 7,-3 2,-2 3,-5 5,-8 1,-2 2,-5 2,-8 1,-3 2,-7 3,-11 1,-3 1,-7 2,-10 0,-4 0,-7 0,-10 0,-4 0,-7 -2,-9 -1,-2 -3,-3 -6,-3zm-25 49c0,-3 0,-6 0,-10 1,-4 2,-8 2,-12 1,-4 2,-8 3,-11 1,-4 2,-7 3,-9 2,-4 5,-8 7,-10 3,-2 6,-3 10,-3 5,0 8,2 11,5 2,3 3,8 3,14 0,3 0,6 0,9 -1,4 -1,8 -2,12 -1,4 -2,8 -3,12 -1,3 -2,6 -3,8 -2,5 -5,8 -7,10 -3,2 -6,3 -10,3 -5,0 -8,-2 -11,-5 -2,-3 -3,-7 -3,-13z"/>
  </g>
 </g>
</svg>
