<?xml version="1.0" encoding="UTF-8"?>
<!DOCTYPE svg PUBLIC "-//W3C//DTD SVG 1.1//EN" "http://www.w3.org/Graphics/SVG/1.1/DTD/svg11.dtd">
<!-- Creator: CorelDRAW X8 -->
<svg xmlns="http://www.w3.org/2000/svg" xml:space="preserve" width="17.6066mm" height="20.3682mm" version="1.1" style="shape-rendering:geometricPrecision; text-rendering:geometricPrecision; image-rendering:optimizeQuality; fill-rule:evenodd; clip-rule:evenodd"
viewBox="0 0 120 139"
 xmlns:xlink="http://www.w3.org/1999/xlink">
 <defs>
  <style type="text/css">
   <![CDATA[
    .fil2 {fill:#0053BA}
    .fil0 {fill:#4D4D4D}
    .fil1 {fill:#B3B3B3}
   ]]>
  </style>
 </defs>
 <g id="Capa_x0020_1">
  <metadata id="CorelCorpID_0Corel-Layer"/>
  <g id="_2014890407664">
   <path class="fil0" d="M33 88l73 0c7,0 13,-6 13,-13l0 -16 0 0c-28,17 -66,26 -86,29zm86 -74l0 -1c0,-7 -6,-13 -13,-13l-2 0c-13,9 -47,28 -59,46 -5,8 2,13 10,13 10,0 24,-5 35,-8l0 -25 29 -12zm-49 -14l-57 0c-7,0 -13,6 -13,13l0 48c12,-22 55,-53 70,-61z"/>
   <path class="fil1" d="M34 89l73 0c7,0 13,-5 13,-13l0 -16 0 0c-28,18 -66,26 -86,29zm86 -74l0 -1c0,-7 -6,-13 -13,-13l-2 0c-13,9 -47,29 -59,46 -5,8 2,14 10,13 10,0 25,-5 35,-8l0 -25 29 -12zm-49 -14l-57 0c-7,0 -13,6 -13,13l0 48c12,-22 56,-53 70,-61z"/>
   <path class="fil2" d="M101 105c1,0 2,0 3,0l15 31 -4 3 -6 -12 -14 0 -5 12 -4 -3 15 -31zm6 18l-5 -11 -5 11 10 0zm-33 -2l5 0 0 17 -5 0c0,0 0,0 0,0 0,0 0,0 0,0l0 0 0 0c-19,0 -26,-13 -20,-24 4,-7 14,-9 23,-9 0,2 0,3 0,5 -4,0 -13,-1 -18,6 -2,2 -3,6 -1,10 2,5 8,8 16,8l0 -13zm-35 -16l5 0 0 33 -5 0 0 -33zm-15 16l5 0 0 17 -5 0c0,0 0,0 0,0 0,0 0,0 0,0l0 0 0 0c-19,0 -26,-13 -20,-24 4,-7 14,-9 23,-9 0,2 0,3 1,5 -4,0 -14,-1 -19,6 -2,2 -2,6 -1,10 2,5 8,8 16,8l0 -13z"/>
  </g>
 </g>
</svg>
