<?xml version="1.0" encoding="utf-8"?>
<!-- Generator: Adobe Illustrator 19.0.0, SVG Export Plug-In . SVG Version: 6.00 Build 0)  -->
<svg version="1.1" id="Angular_Logo" xmlns="http://www.w3.org/2000/svg" xmlns:xlink="http://www.w3.org/1999/xlink" x="0px"
	 y="0px" viewBox="0 0 478.7 505.7" style="enable-background:new 0 0 478.7 505.7;" xml:space="preserve">
<style type="text/css">
	.st0{fill:#B3B3B3;}
	.st1{fill:#A5120D;}
	.st2{fill:#DC1B16;}
	.st3{fill:none;}
	.st4{fill:#FFFFFF;}
	.st5{fill:#B3B2B2;}
</style>
<polygon class="st0" points="0,83.5 238.7,0 478.7,83.5 440.8,394.4 239.4,505.7 37.5,394.4 "/>
<polygon class="st1" points="238.8,25.9 238.8,478.1 418,379 452,100.1 "/>
<polygon class="st2" points="238.8,25.9 238.8,478.1 59.5,379 25.5,100.1 "/>
<path class="st3" d="M-114.5,257.1l-43.3-102.8v102.9C-149.1,257.2-136.2,257.2-114.5,257.1z"/>
<path class="st4" d="M238.8,49L238.8,49L238.8,49L238.8,49L238.8,49L92.1,374.8H146l30.9-73.5c4.8,0,118.5,0,123.7,0l30.9,73.5h53.9
	L238.8,49z M195.6,257.1l43.3-102.8l43.3,102.8C213.7,257.3,232.7,257.3,195.6,257.1z"/>
<path class="st5" d="M238.8,49L238.8,49L238.8,49l0,105.4l43.3,102.8c-21.7,0-34.6,0.1-43.3,0.1v44.1c29.6,0,59.3,0,61.9,0
	l30.9,73.5h53.9L238.8,49z"/>
</svg>
