<?xml version="1.0" encoding="utf-8"?>
<!-- Generator: Adobe Illustrator 19.0.0, SVG Export Plug-In . SVG Version: 6.00 Build 0)  -->
<svg version="1.1" id="Layer_1" xmlns="http://www.w3.org/2000/svg" xmlns:xlink="http://www.w3.org/1999/xlink" x="0px" y="0px"
	 viewBox="76 -26.7 401.7 302.7" style="enable-background:new 76 -26.7 401.7 302.7;" xml:space="preserve">
<style type="text/css">
	.st0{fill:#2572DC;}
	.st1{fill:#B3E02F;}
	.st2{fill:#4BBDF8;}
</style>
<g id="XMLID_53_">
	<circle class="st0" cx="382.7" cy="7" r="33.7"/>
	<circle class="st0" cx="453.1" cy="253.8" r="22.2"/>
	<path class="st0" d="M85.5,33.5c-5.2,0-9.5,4.2-9.5,9.5s4.2,9.5,9.5,9.5l1.3-0.1c27.1,0,49.1,22,49.1,49.1l-0.1,1.8
		c0,5.2,4.2,9.5,9.5,9.5s9.5-4.2,9.5-9.5v-1.8c0-27.1,22-49.1,49.1-49.1l1.5,0.1c5.2,0,9.5-4.2,9.5-9.5c0-5.2-4.2-9.5-9.5-9.5h-1.5
		c-27.1,0-49.1-22-49.1-49.1v-1.6c0-5.2-4.2-9.5-9.5-9.5c-5.3,0-9.5,4.2-9.5,9.5l0.1,1.7c0,27.1-22,49.1-49.1,49.1L85.5,33.5
		L85.5,33.5z"/>
	<g>
		<circle class="st1" cx="286.7" cy="160" r="116"/>
		<path class="st2" d="M402.3,150.1l-93.1-0.3c0,0-43.1,5-45.5-27.9c-2.3-32.9,27.5-36.2,27.5-36.2h17.6
			c-2.7-26.4,15.9-26.4,15.9-26.4h19.9c0,0,22.2,10.6,40.2,38.5S402.3,150.1,402.3,150.1z"/>
		<path class="st2" d="M193.6,229.1c0,0,40.2-4.3,75-12.2c6.3-42.5-33.2-39.5-33.2-39.5c6-34.5-25.9-38.2-25.9-38.2h-37
			c0,0-5.6,18.3,2.4,52C182.7,217.5,193.6,229.1,193.6,229.1z"/>
		<path class="st2" d="M340.6,262.7h-21.2c0,0-24.9-2.3-22.2-33.6c-0.3-18.3,14.9-24.8,14.9-24.8c-3.7-26.9,23.6-31.9,23.6-31.9
			h66.1v2.4c0,0-3,30.3-21.9,54.3C363.2,252.7,340.6,262.7,340.6,262.7z"/>
	</g>
	<path class="st0" d="M379.7,90.8c40.7-3.3,69.4,1.9,75.9,14.7c11.8,23.3-61,72.1-153.1,101.7c-85,27.3-176,29.8-185,6.3
		c-5.6-14.7,16.2-36.3,53.4-57.5l3.1-25.7c-53.4,29.6-84.9,63.7-77,89c11.8,37.6,106.2,41.6,211,8.9s180.2-89.9,168.5-127.5
		c-7.9-25.4-53.5-35.5-114.4-29.3L379.7,90.8z"/>
</g>
</svg>
